<svg width="17" height="17" viewBox="0 0 17 17" fill="none" xmlns="http://www.w3.org/2000/svg">
    <path fill-rule="evenodd" clip-rule="evenodd" d="M13.9127 2.61467L8.5 8.028L3.08733 2.61533C4.51267 1.30267 6.414 0.5 8.5 0.5C10.586 0.5 12.4873 1.30267 13.9127 2.61467ZM8.02867 8.5L2.616 13.9127C1.30333 12.4867 0.5 10.5853 0.5 8.5C0.5 6.414 1.30333 4.512 2.616 3.086L8.02867 8.5ZM3.08733 14.384L8.5 8.97133L13.9127 14.384C12.4873 15.696 10.586 16.5 8.5 16.5C6.414 16.5 4.51267 15.696 3.08733 14.384ZM8.97133 8.5L14.3847 13.9127C15.6967 12.4867 16.5 10.5853 16.5 8.5C16.5 6.414 15.6967 4.512 14.3847 3.086L8.97133 8.5Z" fill="#BA3A26"/>
</svg>
