<svg width="16" height="16" viewBox="0 0 16 16" fill="none" xmlns="http://www.w3.org/2000/svg">
    <path fill-rule="evenodd" clip-rule="evenodd" d="M13.3333 1.33333H15.6667C15.8507 1.33333 16 1.48267 16 1.66667V4.66667H0V1.66667C0 1.48267 0.149333 1.33333 0.333333 1.33333H2.66667V0.333333C2.66667 0.149333 2.816 0 3 0H5C5.184 0 5.33333 0.149333 5.33333 0.333333V1.33333H10.6667V0.333333C10.6667 0.149333 10.816 0 11 0H13C13.184 0 13.3333 0.149333 13.3333 0.333333V1.33333ZM3.33333 2.66667H4.66667V0.666667H3.33333V2.66667ZM12.6667 2.66667H11.3333V0.666667H12.6667V2.66667ZM0.333333 16C0.149333 16 0 15.8507 0 15.6667V5.33333H16V15.6667C16 15.8507 15.8507 16 15.6667 16H0.333333ZM1.33333 10.3333C1.33333 10.5173 1.48267 10.6667 1.66667 10.6667H4V12.6667H1.66667C1.48267 12.6667 1.33333 12.816 1.33333 13C1.33333 13.184 1.48267 13.3333 1.66667 13.3333H4V14.3333C4 14.5173 4.14933 14.6667 4.33333 14.6667C4.51733 14.6667 4.66667 14.5173 4.66667 14.3333V13.3333H7.33333V14.3333C7.33333 14.5173 7.48267 14.6667 7.66667 14.6667C7.85067 14.6667 8 14.5173 8 14.3333V13.3333H10.6667V14.3333C10.6667 14.5173 10.816 14.6667 11 14.6667C11.184 14.6667 11.3333 14.5173 11.3333 14.3333V13.3333H14.3333C14.5173 13.3333 14.6667 13.184 14.6667 13C14.6667 12.816 14.5173 12.6667 14.3333 12.6667H11.3333V10.6667H14.3333C14.5173 10.6667 14.6667 10.5173 14.6667 10.3333C14.6667 10.1493 14.5173 10 14.3333 10H11.3333V8H14.3333C14.5173 8 14.6667 7.85067 14.6667 7.66667C14.6667 7.48267 14.5173 7.33333 14.3333 7.33333H11.3333V6.33333C11.3333 6.14933 11.184 6 11 6C10.816 6 10.6667 6.14933 10.6667 6.33333V7.33333H8V6.33333C8 6.14933 7.85067 6 7.66667 6C7.48267 6 7.33333 6.14933 7.33333 6.33333V7.33333H4.66667V6.33333C4.66667 6.14933 4.51733 6 4.33333 6C4.14933 6 4 6.14933 4 6.33333V7.33333H1.66667C1.48267 7.33333 1.33333 7.48267 1.33333 7.66667C1.33333 7.85067 1.48267 8 1.66667 8H4V10H1.66667C1.48267 10 1.33333 10.1493 1.33333 10.3333ZM8 8H10.6667V10H8V8ZM7.33333 10.6667H4.66667V12.6667H7.33333V10.6667ZM10.6667 10.6667H8V12.6667H10.6667V10.6667ZM7.33333 8H4.66667V10H7.33333V8Z" fill="#0067C5"/>
</svg>
