<svg width="24" height="24" viewBox="0 0 24 24" fill="none" xmlns="http://www.w3.org/2000/svg">
<path fill-rule="evenodd" clip-rule="evenodd" d="M24 17.5002C24 17.6752 23.909 17.8362 23.76 17.9272C23.655 17.9912 21.142 19.5002 18 19.5002C17.508 19.5002 17.01 19.4642 16.508 19.3912C18.052 21.0052 18.613 22.9382 18.636 23.0212C18.686 23.1962 18.637 23.3832 18.509 23.5112C18.38 23.6382 18.193 23.6882 18.019 23.6392C17.934 23.6152 15.903 23.0262 14.268 21.3902C14.073 21.1952 14.073 20.8782 14.268 20.6832C14.463 20.4882 14.78 20.4882 14.975 20.6832C15.734 21.4422 16.605 21.9532 17.264 22.2662C16.95 21.6072 16.44 20.7362 15.681 19.9762C15.235 19.5302 14.703 19.1232 14.101 18.7682C13.88 18.6372 13.794 18.3582 13.903 18.1252C14.011 17.8902 14.278 17.7802 14.523 17.8662C15.706 18.2872 16.875 18.5002 18 18.5002C19.827 18.5002 21.454 17.9212 22.393 17.5002C21.454 17.0792 19.827 16.5002 18 16.5002C16.849 16.5002 15.649 16.7252 14.431 17.1672C14.183 17.2582 13.91 17.1392 13.803 16.8992C13.697 16.6582 13.796 16.3762 14.028 16.2542C15.118 15.6802 16.72 14.6952 18.156 13.2582C19.809 11.6042 20.875 9.72723 21.438 8.56223C20.273 9.12523 18.395 10.1902 16.742 11.8442C15.166 13.4202 14.128 15.1842 13.535 16.3862C13.416 16.6252 13.13 16.7312 12.885 16.6212C12.64 16.5132 12.524 16.2312 12.621 15.9822C13.25 14.3742 14 11.8572 14 9.00023C14 5.87223 13.073 3.12123 12.5 1.71823C11.927 3.12123 11 5.87223 11 9.00023C11 11.8502 11.749 14.3702 12.378 15.9812C12.475 16.2312 12.358 16.5132 12.113 16.6212C11.866 16.7292 11.581 16.6252 11.463 16.3842C10.871 15.1832 9.835 13.4202 8.257 11.8432C6.603 10.1892 4.727 9.12423 3.561 8.56123C4.124 9.72623 5.19 11.6032 6.843 13.2572C8.28 14.6942 9.881 15.6802 10.972 16.2532C11.205 16.3762 11.303 16.6582 11.197 16.8982C11.091 17.1382 10.816 17.2562 10.569 17.1662C9.348 16.7252 8.147 16.5002 7 16.5002C5.173 16.5002 3.546 17.0792 2.607 17.5002C3.546 17.9212 5.173 18.5002 7 18.5002C8.122 18.5002 9.293 18.2862 10.481 17.8642C10.723 17.7782 10.992 17.8912 11.101 18.1252C11.21 18.3592 11.123 18.6372 10.901 18.7672C10.297 19.1222 9.765 19.5292 9.318 19.9752C8.556 20.7382 8.046 21.6092 7.733 22.2662C8.392 21.9532 9.265 21.4422 10.025 20.6822C10.22 20.4872 10.537 20.4872 10.732 20.6822C10.927 20.8772 10.927 21.1942 10.732 21.3892C9.097 23.0252 7.064 23.6142 6.979 23.6382C6.934 23.6512 6.888 23.6572 6.843 23.6572C6.712 23.6572 6.584 23.6062 6.489 23.5112C6.361 23.3832 6.313 23.1962 6.362 23.0212C6.385 22.9382 6.947 21.0042 8.492 19.3912C7.989 19.4632 7.491 19.5002 7 19.5002C3.858 19.5002 1.345 17.9912 1.24 17.9272C1.091 17.8362 1 17.6752 1 17.5002C1 17.3252 1.091 17.1642 1.24 17.0732C1.356 17.0022 4.449 15.1972 7.976 15.5482C7.365 15.0932 6.738 14.5672 6.136 13.9652C3.353 11.1832 2.178 7.90623 2.129 7.76823C2.065 7.58623 2.111 7.38423 2.247 7.24823C2.383 7.11223 2.585 7.06623 2.767 7.13023C2.905 7.17923 6.182 8.35423 8.964 11.1372C9.497 11.6692 9.972 12.2212 10.391 12.7672C10.158 11.6192 10 10.3452 10 9.00023C10 4.23823 11.973 0.427234 12.057 0.268234C12.23 -0.0607656 12.77 -0.0607656 12.943 0.268234C13.027 0.427234 15 4.23823 15 9.00023C15 10.3462 14.843 11.6192 14.61 12.7662C15.029 12.2202 15.503 11.6692 16.035 11.1372C18.816 8.35423 22.095 7.17923 22.233 7.13023C22.414 7.06523 22.617 7.11223 22.753 7.24823C22.889 7.38423 22.935 7.58623 22.871 7.76823C22.822 7.90623 21.646 11.1822 18.863 13.9652C18.262 14.5672 17.634 15.0932 17.024 15.5472C17.352 15.5162 17.678 15.5002 18 15.5002C21.142 15.5002 23.655 17.0092 23.76 17.0732C23.909 17.1642 24 17.3252 24 17.5002ZM12 21.5002C12 21.2242 12.224 21.0002 12.5 21.0002C12.776 21.0002 13 21.2242 13 21.5002V23.5002C13 23.7762 12.776 24.0002 12.5 24.0002C12.224 24.0002 12 23.7762 12 23.5002V21.5002Z" fill="#3E3832"/>
</svg>
