<svg width="24" height="24" viewBox="0 0 24 24" fill="none" xmlns="http://www.w3.org/2000/svg">
    <path fill-rule="evenodd" clip-rule="evenodd"
          d="M21 9.5C21 9.776 20.776 10 20.5 10H20V16H20.5C20.776 16 21 16.224 21 16.5V18.5V20.5V22.5C21 22.776 20.776 23 20.5 23H20V23.5C20 23.776 19.776 24 19.5 24H17.5C17.224 24 17 23.776 17 23.5V23H16.5H7.5H7V23.5C7 23.776 6.776 24 6.5 24H4.5C4.224 24 4 23.776 4 23.5V23H3.5C3.224 23 3 22.776 3 22.5V20.5V18.5V16.5V9.5V3.5C3 1.57 4.57 0 6.5 0H17.5C19.43 0 21 1.57 21 3.5V9.5ZM13 10H4V16H13V10ZM4 20V19H6V20H4ZM8.309 22H15.691L14.691 20H9.309L8.309 22ZM19.5 22H17.5H16.809L15.447 19.276C15.362 19.107 15.189 19 15 19H9C8.811 19 8.638 19.107 8.553 19.276L7.191 22H6.5H4.5H4V21H6.5C6.776 21 7 20.776 7 20.5V18.5C7 18.224 6.776 18 6.5 18H4V17H13.5C13.776 17 14 16.776 14 16.5V9.5C14 9.224 13.776 9 13.5 9H4V3.5C4 2.122 5.122 1 6.5 1H17.5C18.878 1 20 2.122 20 3.5V9H19.5H16.5C16.224 9 16 9.224 16 9.5V16.5C16 16.776 16.224 17 16.5 17H19.5H20V18H17.5C17.224 18 17 18.224 17 18.5V20.5C17 20.776 17.224 21 17.5 21H20V22H19.5ZM17 10V16H19V10H17ZM18 20V19H20V20H18ZM19 7.5V4.5C19 4.224 18.776 4 18.5 4H5.5C5.224 4 5 4.224 5 4.5V7.5C5 7.776 5.224 8 5.5 8H18.5C18.776 8 19 7.776 19 7.5ZM18 7H6V5H18V7Z"
          fill="#3E3832"/>
    <circle cx="8" cy="8" r="8" fill="white"/>
    <path fill-rule="evenodd" clip-rule="evenodd"
          d="M1.4541 8.42429C1.4541 4.58126 4.58077 1.45459 8.4238 1.45459C12.2668 1.45459 15.3935 4.58126 15.3935 8.42429C15.3935 12.2673 12.2668 15.394 8.4238 15.394C4.58077 15.394 1.4541 12.2673 1.4541 8.42429ZM2.06108 8.42401C2.06108 11.9331 4.91563 14.7876 8.42472 14.7876C11.9338 14.7876 14.7884 11.9331 14.7884 8.42401C14.7884 4.91491 11.9338 2.06037 8.42472 2.06037C4.91563 2.06037 2.06108 4.91491 2.06108 8.42401Z"
          fill="black"/>
    <path fill-rule="evenodd" clip-rule="evenodd"
          d="M10.2415 12.3637H8.72637V7.21221C8.72637 7.04494 8.59061 6.90918 8.42334 6.90918H7.21121C7.04394 6.90918 6.90818 7.04494 6.90818 7.21221C6.90818 7.37948 7.04394 7.51524 7.21121 7.51524H8.12031V12.3637H6.60515C6.43788 12.3637 6.30212 12.4995 6.30212 12.6668C6.30212 12.834 6.43788 12.9698 6.60515 12.9698H10.2415C10.4088 12.9698 10.5445 12.834 10.5445 12.6668C10.5445 12.4995 10.4088 12.3637 10.2415 12.3637Z"
          fill="black"/>
    <path fill-rule="evenodd" clip-rule="evenodd"
          d="M8.12126 5.39376C8.45598 5.39376 8.72732 5.12242 8.72732 4.7877C8.72732 4.45298 8.45598 4.18164 8.12126 4.18164C7.78654 4.18164 7.5152 4.45298 7.5152 4.7877C7.5152 5.12242 7.78654 5.39376 8.12126 5.39376Z"
          fill="black"/>
</svg>
